<?xml version="1.0" encoding="UTF-8" standalone="no"?>
<svg
   width="32"
   height="32"
   viewBox="0 71 82 82"
   version="1.1"
   xmlns="http://www.w3.org/2000/svg">
  <path
     style="fill:#8cbd31;stroke-width:0.760243;fill-opacity:1"
     d="m 40.798038,125.61667 c -0.05541,-0.0354 0.07797,-0.0931 0.386219,-0.16812 2.063116,-0.50051 3.540762,-1.41348 4.083565,-2.52294 0.232209,-0.47452 0.283335,-1.26328 0.122385,-1.88786 -0.227872,-0.88437 -0.94735,-1.98833 -1.928605,-2.95947 -0.303243,-0.30024 -0.551356,-0.56807 -0.551356,-0.59551 0,-0.0274 0.05626,-0.0496 0.124999,-0.0496 0.06881,0 0.46702,-0.10306 0.885059,-0.22906 0.905817,-0.27289 2.033079,-0.81251 2.54821,-1.2198 0.465553,-0.36794 0.916296,-0.97331 1.043366,-1.4011 0.127638,-0.42988 0.124368,-1.28349 -0.0069,-1.72445 -0.254834,-0.8581 -0.890358,-1.8248 -1.846724,-2.80883 -0.637577,-0.65601 -0.638076,-0.65676 -0.454224,-0.69923 1.416456,-0.32673 2.637041,-0.85324 3.431478,-1.48015 1.046212,-0.82543 1.384236,-1.94215 0.960619,-3.17337 -0.953205,-2.77055 -5.246692,-6.141205 -12.363623,-9.706226 -1.528917,-0.765864 -3.63273,-1.761959 -3.713564,-1.758255 -0.02135,7.64e-4 0.743186,0.38949 1.699051,0.863393 5.681154,2.816545 9.041701,5.253634 10.053124,7.290598 0.291804,0.58769 0.353581,1.17392 0.179065,1.69934 -0.382038,1.15021 -2.220685,1.96034 -5.245987,2.31154 l -0.678159,0.0788 -1.156315,-0.65886 c -1.274742,-0.72634 -3.634481,-1.96354 -3.634481,-1.90557 0,0.0201 0.181041,0.12775 0.402292,0.23888 1.172166,0.58907 3.889761,2.22348 3.817353,2.2958 -0.08723,0.0878 -2.73512,0.13266 -4.444932,0.0765 -8.015616,-0.26447 -18.318903,-2.01205 -29.9791919,-5.08483 l -1.528622,-0.40306 V 88.136308 76.237678 l 23.8643269,0.01612 23.864307,0.0162 V 100.955 125.64007 l -4.924119,0.0149 c -2.708278,0.01 -4.96221,-0.01 -5.008762,-0.0386 z M 33.190732,93.069947 c -0.08851,-0.05059 -0.189897,-0.09199 -0.225303,-0.09199 -0.03543,0 0.0082,0.0414 0.09656,0.09199 0.08851,0.05049 0.1899,0.09198 0.225289,0.09198 0.03543,0 -0.0082,-0.04141 -0.09654,-0.09198 z m -0.643679,-0.289662 c -0.0531,-0.03429 -0.125527,-0.06245 -0.160923,-0.06245 -0.03541,0 -0.02089,0.02804 0.03223,0.06245 0.05313,0.03427 0.125522,0.06244 0.160922,0.06244 0.03544,0 0.02089,-0.02804 -0.03224,-0.06244 z M 3.0022831,123.78224 v -1.82552 l 0.752487,0.18348 c 5.3886749,1.3146 12.2151319,2.58863 17.1739129,3.20528 0.849653,0.10569 1.631716,0.20363 1.737924,0.21754 0.106206,0.0139 -4.27482,0.0306 -9.735611,0.0357 l -9.9287129,0.01 z M 30.71258,121.70496 c -6.774236,-0.19629 -15.635184,-1.5132 -24.8781199,-3.69783 -1.044377,-0.24685 -2.101608,-0.50048 -2.349424,-0.56374 l -0.45057,-0.11497 -0.01706,-1.97527 c -0.0095,-1.11974 0.0075,-1.97517 0.04018,-1.97517 0.03137,0 0.763204,0.17256 1.626208,0.38354 8.0206709,1.9602 15.9865439,3.37107 22.7460489,4.02886 0.408366,0.0398 0.604361,0.12058 2.091959,0.86247 1.871304,0.93341 3.056796,1.58401 4.331331,2.37741 0.750461,0.46713 0.864743,0.55875 0.739402,0.59212 -0.181205,0.0483 -2.991294,0.10829 -3.879926,0.0826 z m 3.443659,-0.77198 c -0.584129,-0.3359 -2.191721,-1.17529 -3.572405,-1.86526 -1.985918,-0.99247 -2.449832,-1.24702 -2.220687,-1.21826 1.853386,0.23254 7.781662,0.37313 9.822467,0.23292 1.080237,-0.0748 2.660765,-0.24057 2.871259,-0.30217 0.08708,-0.0251 0.132009,0.0441 0.216613,0.33529 0.332162,1.1424 -0.454305,2.12683 -2.195678,2.74804 -0.832796,0.29711 -2.988564,0.69995 -3.663719,0.68471 -0.124051,-0.004 -0.584853,-0.22821 -1.25785,-0.61527 z" />
</svg>
