<?xml version="1.0" encoding="UTF-8" standalone="no"?>
<!-- Created with Inkscape (http://www.inkscape.org/) -->

<svg
   width="296"
   height="82"
   viewBox="0 71 296 82"
   version="1.1"
   id="svg1"
   xml:space="preserve"
   inkscape:version="1.4.2 (f4327f4, 2025-05-13)"
   sodipodi:docname="logoVERDE.svg"
   xmlns:inkscape="http://www.inkscape.org/namespaces/inkscape"
   xmlns:sodipodi="http://sodipodi.sourceforge.net/DTD/sodipodi-0.dtd"
   xmlns="http://www.w3.org/2000/svg"
   xmlns:svg="http://www.w3.org/2000/svg"><sodipodi:namedview
     id="namedview1"
     pagecolor="#ffffff"
     bordercolor="#000000"
     borderopacity="0.25"
     inkscape:showpageshadow="2"
     inkscape:pageopacity="0.0"
     inkscape:pagecheckerboard="0"
     inkscape:deskcolor="#d1d1d1"
     inkscape:document-units="mm"
     inkscape:zoom="0.68862935"
     inkscape:cx="396.43968"
     inkscape:cy="561.25984"
     inkscape:window-width="2400"
     inkscape:window-height="1261"
     inkscape:window-x="2391"
     inkscape:window-y="-9"
     inkscape:window-maximized="1"
     inkscape:current-layer="layer1" /><defs
     id="defs1" /><g
     inkscape:label="Capa 1"
     inkscape:groupmode="layer"
     id="layer1"><path
       style="fill:#8cbd31;stroke-width:0.760243;fill-opacity:1"
       d="m 40.798038,125.61667 c -0.05541,-0.0354 0.07797,-0.0931 0.386219,-0.16812 2.063116,-0.50051 3.540762,-1.41348 4.083565,-2.52294 0.232209,-0.47452 0.283335,-1.26328 0.122385,-1.88786 -0.227872,-0.88437 -0.94735,-1.98833 -1.928605,-2.95947 -0.303243,-0.30024 -0.551356,-0.56807 -0.551356,-0.59551 0,-0.0274 0.05626,-0.0496 0.124999,-0.0496 0.06881,0 0.46702,-0.10306 0.885059,-0.22906 0.905817,-0.27289 2.033079,-0.81251 2.54821,-1.2198 0.465553,-0.36794 0.916296,-0.97331 1.043366,-1.4011 0.127638,-0.42988 0.124368,-1.28349 -0.0069,-1.72445 -0.254834,-0.8581 -0.890358,-1.8248 -1.846724,-2.80883 -0.637577,-0.65601 -0.638076,-0.65676 -0.454224,-0.69923 1.416456,-0.32673 2.637041,-0.85324 3.431478,-1.48015 1.046212,-0.82543 1.384236,-1.94215 0.960619,-3.17337 -0.953205,-2.77055 -5.246692,-6.141205 -12.363623,-9.706226 -1.528917,-0.765864 -3.63273,-1.761959 -3.713564,-1.758255 -0.02135,7.64e-4 0.743186,0.38949 1.699051,0.863393 5.681154,2.816545 9.041701,5.253634 10.053124,7.290598 0.291804,0.58769 0.353581,1.17392 0.179065,1.69934 -0.382038,1.15021 -2.220685,1.96034 -5.245987,2.31154 l -0.678159,0.0788 -1.156315,-0.65886 c -1.274742,-0.72634 -3.634481,-1.96354 -3.634481,-1.90557 0,0.0201 0.181041,0.12775 0.402292,0.23888 1.172166,0.58907 3.889761,2.22348 3.817353,2.2958 -0.08723,0.0878 -2.73512,0.13266 -4.444932,0.0765 -8.015616,-0.26447 -18.318903,-2.01205 -29.9791919,-5.08483 l -1.528622,-0.40306 V 88.136308 76.237678 l 23.8643269,0.01612 23.864307,0.0162 V 100.955 125.64007 l -4.924119,0.0149 c -2.708278,0.01 -4.96221,-0.01 -5.008762,-0.0386 z M 33.190732,93.069947 c -0.08851,-0.05059 -0.189897,-0.09199 -0.225303,-0.09199 -0.03543,0 0.0082,0.0414 0.09656,0.09199 0.08851,0.05049 0.1899,0.09198 0.225289,0.09198 0.03543,0 -0.0082,-0.04141 -0.09654,-0.09198 z m -0.643679,-0.289662 c -0.0531,-0.03429 -0.125527,-0.06245 -0.160923,-0.06245 -0.03541,0 -0.02089,0.02804 0.03223,0.06245 0.05313,0.03427 0.125522,0.06244 0.160922,0.06244 0.03544,0 0.02089,-0.02804 -0.03224,-0.06244 z M 3.0022831,123.78224 v -1.82552 l 0.752487,0.18348 c 5.3886749,1.3146 12.2151319,2.58863 17.1739129,3.20528 0.849653,0.10569 1.631716,0.20363 1.737924,0.21754 0.106206,0.0139 -4.27482,0.0306 -9.735611,0.0357 l -9.9287129,0.01 z M 30.71258,121.70496 c -6.774236,-0.19629 -15.635184,-1.5132 -24.8781199,-3.69783 -1.044377,-0.24685 -2.101608,-0.50048 -2.349424,-0.56374 l -0.45057,-0.11497 -0.01706,-1.97527 c -0.0095,-1.11974 0.0075,-1.97517 0.04018,-1.97517 0.03137,0 0.763204,0.17256 1.626208,0.38354 8.0206709,1.9602 15.9865439,3.37107 22.7460489,4.02886 0.408366,0.0398 0.604361,0.12058 2.091959,0.86247 1.871304,0.93341 3.056796,1.58401 4.331331,2.37741 0.750461,0.46713 0.864743,0.55875 0.739402,0.59212 -0.181205,0.0483 -2.991294,0.10829 -3.879926,0.0826 z m 3.443659,-0.77198 c -0.584129,-0.3359 -2.191721,-1.17529 -3.572405,-1.86526 -1.985918,-0.99247 -2.449832,-1.24702 -2.220687,-1.21826 1.853386,0.23254 7.781662,0.37313 9.822467,0.23292 1.080237,-0.0748 2.660765,-0.24057 2.871259,-0.30217 0.08708,-0.0251 0.132009,0.0441 0.216613,0.33529 0.332162,1.1424 -0.454305,2.12683 -2.195678,2.74804 -0.832796,0.29711 -2.988564,0.69995 -3.663719,0.68471 -0.124051,-0.004 -0.584853,-0.22821 -1.25785,-0.61527 z m 104.661941,-5.68679 c -2.70698,-0.46153 -4.87784,-1.40284 -6.63396,-2.8762 -2.26133,-1.89751 -3.63423,-5.10927 -3.9905,-9.33615 -0.10072,-1.1943 -0.0446,-4.345461 0.0953,-5.361614 0.66481,-4.822644 2.51526,-7.913515 5.9024,-9.858882 1.13662,-0.652861 2.98197,-1.253226 4.62663,-1.505327 1.09025,-0.167146 3.95949,-0.202692 5.26549,-0.06529 2.30991,0.243053 4.94072,0.892324 7.0287,1.734609 l 0.54709,0.220705 0.0165,3.101286 c 0.01,1.705699 -0.006,3.091239 -0.0331,3.078964 -0.027,-0.01227 -0.34423,-0.173545 -0.70512,-0.358373 -1.74809,-0.895335 -4.00902,-1.827132 -5.18007,-2.134884 -1.80482,-0.474346 -3.76739,-0.558908 -5.35593,-0.230777 -1.92082,0.396745 -3.37322,1.39418 -4.18748,2.875559 -0.86372,1.571311 -1.2856,4.290446 -1.12903,7.277814 0.16492,3.14853 0.81337,5.05721 2.18241,6.42486 0.9496,0.94835 2.19101,1.52802 3.71661,1.73512 1.36205,0.18498 3.80883,-0.0156 4.82438,-0.39571 l 0.34613,-0.1296 v -2.44137 -2.44136 h -2.28482 -2.28505 v -2.67126 -2.671242 h 5.72877 5.72867 v 6.618192 6.61825 l -1.07798,0.52388 c -2.37706,1.15504 -4.55969,1.87598 -6.8616,2.26661 -0.67659,0.1148 -1.03656,0.12869 -3.18627,0.12335 -2.01433,-0.007 -2.53762,-0.0251 -3.09931,-0.12113 z m 19.80396,-0.36617 c -0.0234,-0.0237 -0.0429,-6.36721 -0.0429,-14.09668 V 86.729722 h 9.65514 9.65513 v 2.67126 2.671267 h -6.24364 -6.24365 v 2.993096 2.993105 h 5.37465 5.37469 v 2.67124 2.67127 h -5.37469 -5.37465 v 3.08963 3.08962 h 6.24434 6.24435 l -0.0168,2.65536 -0.0168,2.65511 -9.59579,0.0162 c -5.27787,0.01 -9.61544,-0.004 -9.6391,-0.0268 z m 54.54072,-14.05377 V 86.729722 h 9.62281 9.62305 v 2.67126 2.671267 h -6.2114 -6.21162 v 2.992726 2.992733 l 5.3586,0.01646 5.35865,0.01645 0.0168,2.655172 0.0168,2.65517 h -5.37531 -5.37558 v 3.08963 3.08962 h 6.21164 6.21137 v 2.67134 2.67123 h -9.62276 -9.62287 z m -108.31493,-0.0161 0.0162,-13.983865 9.54254,-0.01637 9.54246,-0.01622 v 2.607104 2.607108 h -6.21143 -6.21154 v 3.089653 3.089639 h 5.37476 5.37467 v 2.574711 2.57471 h -5.37466 -5.37477 v 3.15402 3.15402 h 6.21155 6.21143 v 2.57471 2.57476 h -9.55867 -9.55879 z m 18.00699,11.40912 v -1.48051 h -6.21148 -6.21151 v -4.24819 -4.24823 h 5.37473 5.37472 v -1.48045 -1.480463 h -5.37472 -5.37473 v -4.183884 -4.183897 h 6.21151 6.21148 V 89.40095 87.888311 h -8.46434 -8.46436 v 12.905719 12.90574 h 8.46436 8.46434 z m 60.18374,-11.45736 V 86.729722 l 2.97716,0.003 2.97692,0.0036 6.14692,8.306329 6.1473,8.306299 0.0162,-8.308987 0.0162,-8.309005 h 3.15378 3.15383 v 14.031812 14.03212 h -2.59662 -2.59661 l -6.52749,-8.49865 -6.52765,-8.498699 -0.0162,8.498699 -0.0162,8.49865 h -3.15392 -3.15382 z m 54.67797,13.95164 c -0.0168,-0.0443 -0.0231,-6.35148 -0.0139,-14.01601 l 0.0164,-13.935594 h 7.65971 c 7.14083,0 7.71216,0.0082 8.43223,0.119448 2.82731,0.437228 4.90814,1.496583 6.13192,3.121679 1.67257,2.221055 2.11077,5.916155 1.04779,8.835653 -0.87989,2.416734 -2.48428,4.071304 -4.6602,4.805864 -0.20311,0.0685 -0.3697,0.15043 -0.37001,0.18192 -5.5e-4,0.0317 1.57201,2.47142 3.49485,5.42201 1.92263,2.95051 3.51899,5.40535 3.54728,5.45503 0.044,0.0772 -0.58721,0.0905 -4.34481,0.0896 l -4.39626,-0.002 -2.77072,-4.81001 -2.7708,-4.8098 -2.10518,-0.0169 -2.10508,-0.0169 v 4.82842 4.82848 h -3.38122 c -2.64595,0 -3.388,-0.0176 -3.41188,-0.0807 z m 13.66416,-14.67958 c 1.07045,-0.285443 1.8468,-0.880767 2.27101,-1.741604 0.3402,-0.690247 0.44632,-1.230814 0.44773,-2.280281 0.003,-1.861602 -0.48119,-2.925571 -1.59457,-3.509356 -0.77798,-0.407805 -1.0259,-0.430456 -4.7096,-0.430456 h -3.28553 v 4.058951 4.058956 l 3.23438,-0.0245 c 2.76007,-0.0209 3.29362,-0.0403 3.63658,-0.13169 z m 13.27491,14.71191 c -6.7e-4,-0.0264 2.38184,-6.34096 5.29417,-14.03194 l 5.2955,-13.983567 3.71136,-3.03e-4 3.71135,-3.18e-4 0.1271,0.370117 c 0.0699,0.203571 2.27735,6.467338 4.90571,13.919511 2.62831,7.45226 4.79327,13.60032 4.81075,13.66255 0.031,0.10708 -0.15606,0.11234 -3.49722,0.0966 l -3.52907,-0.0166 -0.9771,-2.99306 -0.97725,-2.99315 -5.24817,-0.0164 -5.2483,-0.0164 -0.80323,2.46242 c -0.44166,1.35433 -0.88432,2.71586 -0.9836,3.02569 l -0.1804,0.56318 h -3.20505 c -1.76317,0 -3.20581,-0.0218 -3.20655,-0.0482 z m 17.22178,-11.07137 c -0.0238,-0.0623 -0.82402,-2.428 -1.77814,-5.25793 -0.954,-2.829915 -1.74336,-5.154048 -1.75401,-5.16471 -0.0262,-0.02648 -3.52085,10.3539 -3.5194,10.45484 7.3e-4,0.0637 0.75402,0.0807 3.54827,0.0807 3.35192,0 3.54466,-0.007 3.50328,-0.11266 z m -206.381239,-2.92867 0.01625,-13.919517 h 7.466653 c 5.671346,0 7.613683,0.01962 8.078146,0.08171 2.635927,0.35232 4.528046,1.141929 5.879531,2.453603 1.070947,1.039393 1.752955,2.426594 2.076353,4.22327 0.178597,0.992234 0.165475,2.998234 -0.02532,3.874201 -0.351369,1.612915 -1.146907,3.222973 -2.101747,4.253633 -0.742515,0.80148 -1.971453,1.57443 -3.000108,1.88685 l -0.439603,0.13349 0.466819,0.71898 c 0.256753,0.39554 1.84817,2.83839 3.536486,5.42866 1.688317,2.59024 3.069675,4.72649 3.069675,4.74714 0,0.0207 -1.921461,0.0373 -4.269891,0.0373 h -4.269881 l -2.762282,-4.79423 -2.762293,-4.7942 -2.172413,-7.6e-4 -2.172408,-8e-4 v 4.79536 4.79551 h -3.315089 -3.315072 z m 5.519674,8.0292 v -4.79594 l 3.039267,0.0166 3.039231,0.0166 2.74855,4.76318 2.748565,4.76321 2.972944,0.0166 2.972932,0.0166 -0.125485,-0.20977 c -0.06909,-0.11543 -1.592741,-2.45963 -3.386049,-5.20939 -1.793299,-2.74972 -3.260552,-5.01424 -3.260552,-5.03224 0,-0.0178 0.166556,-0.0796 0.370134,-0.13657 2.156171,-0.60547 3.030378,-1.04265 3.882009,-1.94133 0.860209,-0.90773 1.60165,-2.371895 1.902573,-3.756962 0.162621,-0.748622 0.164243,-2.721598 0.0036,-3.604597 -0.228592,-1.250741 -0.733065,-2.39826 -1.396003,-3.175142 -1.092071,-1.279631 -2.854439,-2.109176 -5.246326,-2.469343 -0.614994,-0.09263 -1.611261,-0.109541 -7.706277,-0.131057 l -7.000046,-0.02481 v 12.844701 12.84494 h 2.220728 2.220682 z m 0,-12.650199 v -5.216418 l 4.2,0.01947 4.19999,0.01944 0.450576,0.150003 c 0.903187,0.300696 1.649312,0.776735 2.106865,1.344208 0.282243,0.350047 0.670944,1.191612 0.825379,1.787069 0.172154,0.663739 0.235304,2.038904 0.129851,2.827555 -0.313704,2.346025 -1.630009,3.748172 -3.927885,4.184082 -0.445129,0.0844 -1.142805,0.10098 -4.258555,0.10098 h -3.726221 z m 8.206892,3.968119 c 1.36259,-0.402814 2.163458,-1.211567 2.524552,-2.549416 0.16267,-0.602738 0.159707,-2.495678 -0.005,-3.089646 -0.278402,-1.005132 -0.782335,-1.674993 -1.540979,-2.048476 -0.784593,-0.386258 -0.893259,-0.395499 -4.663735,-0.396557 l -3.427612,-7.45e-4 v 4.122719 4.122731 l 3.363253,-0.023 c 2.988669,-0.0204 3.406216,-0.0358 3.749419,-0.13729 z m -57.609092,13.50003 c -0.17702,-0.0109 -0.828728,-0.0495 -1.448277,-0.0872 -7.052801,-0.4214 -16.211768,-2.01817 -26.4712079,-4.61519 l -0.691947,-0.17512 v -2.02072 c 0,-1.78707 0.01153,-2.01643 0.09845,-1.98308 0.367567,0.14116 4.5388159,1.18799 7.1012549,1.78237 6.302354,1.46179 13.96461,2.74677 18.837033,3.15912 l 0.90114,0.0763 1.159308,0.55661 c 1.911837,0.9179 4.325883,2.25263 5.406209,2.98906 l 0.38619,0.26326 -0.547124,0.0418 c -0.536255,0.0412 -4.096807,0.0502 -4.731021,0.0126 z m 5.020682,-0.55068 c -1.053798,-0.61525 -3.66904,-1.97428 -5.129064,-2.66524 -0.661456,-0.31303 -1.191977,-0.57995 -1.178924,-0.59299 0.0131,-0.0132 0.655606,0.0228 1.427925,0.0805 4.550696,0.33695 8.190217,0.29485 11.234716,-0.1299 0.291621,-0.0406 0.307047,-0.0354 0.375594,0.14308 0.363217,0.94252 -0.138484,1.93408 -1.275646,2.52085 -1.045228,0.5393 -2.263115,0.83188 -4.456898,1.07045 -0.186155,0.0202 -0.359454,-0.0538 -0.997703,-0.42651 z"
       id="path1" /></g></svg>
